<?xml version="1.0" encoding="utf-8"?>
<!-- Generator: Adobe Illustrator 25.1.0, SVG Export Plug-In . SVG Version: 6.00 Build 0)  -->
<svg version="1.1" id="Layer_1" xmlns="http://www.w3.org/2000/svg" xmlns:xlink="http://www.w3.org/1999/xlink" x="0px" y="0px"
	 viewBox="0 0 1080 1080" style="enable-background:new 0 0 1080 1080;" xml:space="preserve">
<style type="text/css">
	.st0{fill:#FFFFFF;}
</style>
<g>
	<g>
		<path class="st0" d="M445.97,606.59c0.41,0,0.71,0.09,0.9,0.27c0.19,0.18,0.19,0.44-0.02,0.79l-5.44,9.29v4.83
			c0,0.38-0.1,0.67-0.3,0.87c-0.2,0.2-0.49,0.31-0.88,0.31h-2.06c-0.38,0-0.66-0.1-0.86-0.31c-0.2-0.2-0.29-0.5-0.29-0.87v-4.78
			l-5.62-9.34c-0.18-0.35-0.18-0.62-0.01-0.79c0.17-0.18,0.46-0.26,0.87-0.26h2.14c0.75,0,1.33,0.39,1.76,1.18l3.1,5.38l2.97-5.38
			c0.39-0.79,0.97-1.18,1.73-1.18H445.97z"/>
		<path class="st0" d="M453.13,623.27c-2.03,0-3.71-0.63-5.04-1.89c-1.33-1.26-1.99-2.84-1.99-4.74c0-1.9,0.66-3.48,1.99-4.74
			c1.33-1.26,3.01-1.89,5.04-1.89c1.34,0,2.55,0.29,3.62,0.86c1.07,0.57,1.9,1.36,2.5,2.37c0.6,1.01,0.9,2.14,0.9,3.39
			c0,1.25-0.3,2.38-0.9,3.39c-0.6,1.01-1.43,1.8-2.5,2.37C455.68,622.99,454.47,623.27,453.13,623.27z M451.17,618.73
			c0.52,0.55,1.17,0.82,1.96,0.82c0.79,0,1.44-0.28,1.95-0.82c0.51-0.55,0.77-1.24,0.77-2.08c0-0.84-0.26-1.53-0.77-2.08
			c-0.51-0.55-1.16-0.82-1.95-0.82c-0.79,0-1.44,0.27-1.96,0.82c-0.52,0.55-0.78,1.24-0.78,2.08
			C450.39,617.49,450.65,618.18,451.17,618.73z"/>
		<path class="st0" d="M473.55,610.24c0.36,0,0.64,0.1,0.84,0.31c0.2,0.2,0.29,0.49,0.29,0.85v10.39c0,0.36-0.1,0.64-0.29,0.85
			c-0.2,0.2-0.48,0.31-0.84,0.31h-1.23c-0.36,0-0.64-0.1-0.85-0.31c-0.21-0.2-0.31-0.49-0.31-0.85v-0.5
			c-0.86,1.33-2.11,1.99-3.76,1.99c-1.56,0-2.81-0.47-3.77-1.41c-0.96-0.94-1.43-2.18-1.43-3.72v-6.75c0-0.36,0.1-0.64,0.31-0.85
			c0.2-0.2,0.49-0.31,0.85-0.31h2.06c0.36,0,0.64,0.1,0.85,0.31c0.21,0.2,0.31,0.49,0.31,0.85v6.12c0,0.61,0.17,1.11,0.5,1.49
			c0.34,0.38,0.79,0.57,1.35,0.57c0.58,0,1.04-0.19,1.38-0.58c0.34-0.38,0.51-0.89,0.51-1.51v-6.09c0-0.36,0.1-0.64,0.29-0.85
			c0.2-0.2,0.48-0.31,0.84-0.31H473.55z"/>
		<path class="st0" d="M486.46,610.31c0.27,0.09,0.46,0.21,0.58,0.36c0.12,0.15,0.13,0.39,0.04,0.72l-0.48,1.89
			c-0.19,0.66-0.54,0.88-1.06,0.68c-0.57-0.17-1-0.26-1.31-0.26c-0.73,0-1.29,0.22-1.69,0.66c-0.4,0.44-0.6,1.04-0.6,1.81v5.61
			c0,0.36-0.1,0.64-0.29,0.85c-0.2,0.2-0.48,0.31-0.84,0.31h-2.09c-0.36,0-0.64-0.1-0.84-0.31c-0.2-0.2-0.29-0.49-0.29-0.85v-10.39
			c0-0.36,0.1-0.64,0.29-0.85c0.2-0.2,0.48-0.31,0.84-0.31h1.33c0.36,0,0.64,0.1,0.84,0.31c0.2,0.2,0.3,0.49,0.3,0.85v0.6
			c0.94-1.31,2.09-1.97,3.44-1.97C485.28,610.03,485.88,610.12,486.46,610.31z"/>
		<path class="st0" d="M501.55,623.25c-1.25,0-2.42-0.22-3.52-0.65c-1.1-0.43-2.05-1.02-2.84-1.77c-0.79-0.75-1.42-1.64-1.88-2.7
			c-0.46-1.05-0.69-2.18-0.69-3.37c0-1.59,0.39-3.03,1.18-4.33c0.79-1.3,1.87-2.31,3.24-3.05c1.37-0.73,2.89-1.1,4.56-1.1
			c1.21,0,2.35,0.21,3.4,0.64c1.06,0.43,1.97,1.03,2.75,1.81c0.28,0.26,0.42,0.54,0.42,0.85s-0.14,0.57-0.42,0.81l-1.28,1.08
			c-0.53,0.46-1.08,0.45-1.66-0.02c-0.96-0.79-2.03-1.18-3.22-1.18c-1.27,0-2.33,0.43-3.19,1.28c-0.86,0.85-1.29,1.93-1.29,3.22
			c0,1.3,0.43,2.38,1.29,3.23c0.86,0.85,1.92,1.28,3.19,1.28c1.21,0,2.29-0.39,3.22-1.18c0.57-0.48,1.13-0.48,1.66-0.02l1.28,1.08
			c0.28,0.24,0.42,0.51,0.42,0.81s-0.14,0.59-0.42,0.85c-0.78,0.78-1.7,1.38-2.76,1.81C503.93,623.04,502.78,623.25,501.55,623.25z"
			/>
		<path class="st0" d="M515.63,610.03c0.8,0,1.55,0.09,2.24,0.28c0.69,0.19,1.32,0.48,1.9,0.88c0.58,0.4,1.04,0.96,1.38,1.68
			c0.34,0.72,0.5,1.57,0.5,2.54v6.36c0,0.77-0.38,1.16-1.16,1.16h-1.03c-0.36,0-0.64-0.1-0.84-0.31c-0.2-0.2-0.3-0.49-0.3-0.85v-0.1
			c-1.16,1.06-2.5,1.59-4.02,1.59c-1.5,0-2.7-0.37-3.61-1.1c-0.9-0.73-1.36-1.7-1.36-2.91c0-1.29,0.5-2.34,1.49-3.12
			c0.99-0.79,2.3-1.18,3.93-1.18c0.87,0,1.82,0.18,2.86,0.53v-0.46c0-0.59-0.2-1.05-0.6-1.39s-0.96-0.5-1.69-0.5
			c-1.06,0-2,0.25-2.83,0.74c-0.63,0.35-1.11,0.2-1.45-0.45l-0.28-0.58c-0.2-0.42-0.27-0.74-0.21-0.97
			c0.06-0.23,0.23-0.43,0.52-0.61c0.61-0.39,1.32-0.69,2.15-0.91C514.06,610.14,514.86,610.03,515.63,610.03z M515.41,620.57
			c0.65,0,1.19-0.16,1.64-0.49c0.45-0.33,0.67-0.67,0.67-1.03v-1.03c-0.79-0.37-1.55-0.55-2.26-0.55c-0.61,0-1.11,0.15-1.48,0.44
			c-0.37,0.29-0.56,0.68-0.56,1.14s0.18,0.84,0.54,1.11C514.32,620.43,514.81,620.57,515.41,620.57z"/>
		<path class="st0" d="M540.01,610.03c1.57,0,2.85,0.5,3.82,1.5c0.97,1,1.46,2.33,1.46,3.99v6.27c0,0.36-0.1,0.64-0.3,0.85
			c-0.2,0.2-0.48,0.31-0.84,0.31h-2.09c-0.36,0-0.64-0.1-0.84-0.31c-0.2-0.2-0.29-0.49-0.29-0.85v-5.95c0-0.65-0.17-1.16-0.5-1.54
			c-0.34-0.38-0.8-0.57-1.4-0.57c-0.59,0-1.06,0.19-1.43,0.58c-0.36,0.39-0.54,0.9-0.54,1.54v5.95c0,0.36-0.1,0.64-0.29,0.85
			c-0.2,0.2-0.48,0.31-0.84,0.31h-2.09c-0.36,0-0.64-0.1-0.84-0.31c-0.2-0.2-0.3-0.49-0.3-0.85v-5.95c0-0.65-0.17-1.16-0.5-1.54
			c-0.34-0.38-0.8-0.57-1.4-0.57c-0.59,0-1.06,0.19-1.43,0.58c-0.36,0.39-0.54,0.9-0.54,1.54v5.95c0,0.36-0.1,0.64-0.29,0.85
			c-0.2,0.2-0.48,0.31-0.84,0.31h-2.09c-0.36,0-0.64-0.1-0.84-0.31c-0.2-0.2-0.29-0.49-0.29-0.85v-10.39c0-0.36,0.1-0.64,0.29-0.85
			c0.2-0.2,0.48-0.31,0.84-0.31h1.33c0.36,0,0.64,0.1,0.84,0.31c0.2,0.2,0.3,0.49,0.3,0.85v0.68c0.97-1.36,2.26-2.04,3.9-2.04
			c1.69,0,3,0.58,3.93,1.74C536.97,610.61,538.33,610.03,540.01,610.03z"/>
		<path class="st0" d="M555.69,610.03c1.19,0,2.26,0.29,3.22,0.87c0.96,0.58,1.71,1.38,2.25,2.39c0.54,1.01,0.81,2.13,0.81,3.36
			c0,1.22-0.27,2.34-0.81,3.35c-0.54,1.01-1.29,1.81-2.25,2.4c-0.96,0.59-2.04,0.88-3.24,0.88c-1.17,0-2.24-0.3-3.19-0.91v4.2
			c0,0.36-0.1,0.64-0.29,0.85c-0.2,0.2-0.48,0.31-0.84,0.31h-2.09c-0.36,0-0.64-0.1-0.84-0.31c-0.2-0.2-0.29-0.49-0.29-0.85v-15.17
			c0-0.36,0.1-0.64,0.29-0.85c0.2-0.2,0.48-0.31,0.84-0.31h1.23c0.36,0,0.64,0.1,0.84,0.31c0.2,0.2,0.3,0.49,0.3,0.85v0.17
			C552.83,610.54,554.18,610.03,555.69,610.03z M554.96,619.55c0.79,0,1.45-0.28,1.95-0.83c0.51-0.55,0.76-1.24,0.76-2.07
			c0-0.83-0.25-1.52-0.76-2.07c-0.51-0.55-1.16-0.83-1.95-0.83c-0.77,0-1.41,0.27-1.92,0.81c-0.51,0.54-0.77,1.23-0.77,2.09
			c0,0.86,0.26,1.56,0.77,2.1S554.19,619.55,554.96,619.55z"/>
		<path class="st0" d="M575.38,610.24c0.36,0,0.64,0.1,0.84,0.31c0.2,0.2,0.29,0.49,0.29,0.85v10.39c0,0.36-0.1,0.64-0.29,0.85
			c-0.2,0.2-0.48,0.31-0.84,0.31h-1.23c-0.36,0-0.64-0.1-0.85-0.31c-0.21-0.2-0.31-0.49-0.31-0.85v-0.5
			c-0.86,1.33-2.11,1.99-3.76,1.99c-1.56,0-2.81-0.47-3.77-1.41c-0.96-0.94-1.43-2.18-1.43-3.72v-6.75c0-0.36,0.1-0.64,0.31-0.85
			c0.2-0.2,0.49-0.31,0.85-0.31h2.06c0.36,0,0.64,0.1,0.85,0.31c0.21,0.2,0.31,0.49,0.31,0.85v6.12c0,0.61,0.17,1.11,0.5,1.49
			c0.34,0.38,0.79,0.57,1.35,0.57c0.58,0,1.04-0.19,1.38-0.58c0.34-0.38,0.51-0.89,0.51-1.51v-6.09c0-0.36,0.1-0.64,0.29-0.85
			c0.2-0.2,0.48-0.31,0.84-0.31H575.38z"/>
		<path class="st0" d="M584.34,623.3c-1.05,0-2.06-0.18-3.02-0.53c-0.97-0.36-1.72-0.78-2.26-1.28c-0.3-0.28-0.47-0.54-0.49-0.79
			c-0.02-0.25,0.11-0.54,0.39-0.9l0.6-0.72c0.18-0.22,0.37-0.36,0.57-0.42c0.2-0.06,0.39-0.06,0.55-0.01
			c0.17,0.06,0.35,0.16,0.56,0.3c1.02,0.74,2.06,1.11,3.12,1.11c0.38,0,0.67-0.07,0.87-0.2c0.2-0.13,0.31-0.31,0.31-0.55
			c0-0.11-0.03-0.22-0.1-0.33c-0.07-0.1-0.14-0.19-0.22-0.26c-0.08-0.07-0.2-0.14-0.37-0.22c-0.16-0.08-0.3-0.14-0.41-0.18
			c-0.11-0.04-0.27-0.1-0.48-0.17c-0.41-0.12-0.74-0.22-0.98-0.31c-0.25-0.08-0.56-0.2-0.93-0.34c-0.37-0.15-0.68-0.29-0.91-0.43
			c-0.23-0.14-0.48-0.31-0.76-0.53c-0.27-0.21-0.48-0.44-0.64-0.68c-0.16-0.24-0.28-0.52-0.39-0.84c-0.1-0.32-0.15-0.66-0.15-1.03
			c0-1.22,0.47-2.19,1.4-2.91c0.93-0.72,2.19-1.07,3.76-1.07c0.88,0,1.76,0.13,2.63,0.4c0.87,0.27,1.54,0.6,2,0.98
			c0.3,0.26,0.46,0.52,0.48,0.76c0.02,0.25-0.12,0.56-0.41,0.95l-0.53,0.65c-0.42,0.54-0.95,0.61-1.61,0.21
			c-0.78-0.56-1.62-0.84-2.52-0.84c-0.34,0-0.61,0.06-0.81,0.19c-0.2,0.13-0.29,0.29-0.29,0.5c0,0.12,0.04,0.23,0.12,0.33
			c0.08,0.09,0.21,0.19,0.4,0.28c0.19,0.09,0.38,0.17,0.55,0.23c0.18,0.06,0.44,0.15,0.79,0.27c0.35,0.12,0.64,0.22,0.88,0.3
			c0.57,0.22,1.05,0.45,1.45,0.68c0.4,0.23,0.77,0.5,1.12,0.82c0.34,0.32,0.6,0.68,0.77,1.11c0.17,0.42,0.26,0.9,0.26,1.43
			c0,1.25-0.48,2.24-1.46,2.97C587.22,622.94,585.94,623.3,584.34,623.3z"/>
		<path class="st0" d="M600.56,625.46c0,0.38-0.1,0.66-0.31,0.86c-0.2,0.2-0.5,0.29-0.87,0.29h-0.84c-0.77,0-1.16-0.38-1.16-1.15
			v-19.18c0-0.77,0.39-1.15,1.16-1.15h0.84c0.38,0,0.67,0.1,0.87,0.29c0.2,0.2,0.31,0.48,0.31,0.86V625.46z"/>
		<path class="st0" d="M622.05,606.59c0.41,0,0.71,0.09,0.9,0.27c0.19,0.18,0.19,0.44-0.02,0.79l-5.44,9.29v4.83
			c0,0.38-0.1,0.67-0.3,0.87c-0.2,0.2-0.49,0.31-0.88,0.31h-2.06c-0.38,0-0.66-0.1-0.86-0.31c-0.2-0.2-0.29-0.5-0.29-0.87v-4.78
			l-5.62-9.34c-0.18-0.35-0.18-0.62-0.01-0.79c0.17-0.18,0.46-0.26,0.87-0.26h2.14c0.75,0,1.33,0.39,1.76,1.18l3.1,5.38l2.97-5.38
			c0.39-0.79,0.97-1.18,1.73-1.18H622.05z"/>
		<path class="st0" d="M629.21,623.27c-2.03,0-3.71-0.63-5.04-1.89c-1.33-1.26-1.99-2.84-1.99-4.74c0-1.9,0.66-3.48,1.99-4.74
			c1.33-1.26,3.01-1.89,5.04-1.89c1.34,0,2.55,0.29,3.62,0.86c1.07,0.57,1.9,1.36,2.5,2.37c0.6,1.01,0.9,2.14,0.9,3.39
			c0,1.25-0.3,2.38-0.9,3.39c-0.6,1.01-1.43,1.8-2.5,2.37C631.76,622.99,630.56,623.27,629.21,623.27z M627.25,618.73
			c0.52,0.55,1.17,0.82,1.96,0.82c0.79,0,1.44-0.28,1.95-0.82c0.51-0.55,0.77-1.24,0.77-2.08c0-0.84-0.26-1.53-0.77-2.08
			c-0.51-0.55-1.16-0.82-1.95-0.82c-0.79,0-1.44,0.27-1.96,0.82c-0.52,0.55-0.78,1.24-0.78,2.08
			C626.47,617.49,626.73,618.18,627.25,618.73z"/>
		<path class="st0" d="M649.63,610.24c0.36,0,0.64,0.1,0.84,0.31c0.2,0.2,0.29,0.49,0.29,0.85v10.39c0,0.36-0.1,0.64-0.29,0.85
			c-0.2,0.2-0.48,0.31-0.84,0.31h-1.23c-0.36,0-0.64-0.1-0.85-0.31c-0.21-0.2-0.31-0.49-0.31-0.85v-0.5
			c-0.86,1.33-2.11,1.99-3.76,1.99c-1.56,0-2.81-0.47-3.77-1.41c-0.96-0.94-1.43-2.18-1.43-3.72v-6.75c0-0.36,0.1-0.64,0.31-0.85
			c0.2-0.2,0.49-0.31,0.85-0.31h2.06c0.36,0,0.64,0.1,0.85,0.31c0.21,0.2,0.31,0.49,0.31,0.85v6.12c0,0.61,0.17,1.11,0.5,1.49
			c0.34,0.38,0.79,0.57,1.35,0.57c0.58,0,1.04-0.19,1.38-0.58c0.34-0.38,0.51-0.89,0.51-1.51v-6.09c0-0.36,0.1-0.64,0.29-0.85
			c0.2-0.2,0.48-0.31,0.84-0.31H649.63z"/>
		<path class="st0" d="M662.55,610.31c0.27,0.09,0.46,0.21,0.58,0.36c0.12,0.15,0.13,0.39,0.04,0.72l-0.48,1.89
			c-0.19,0.66-0.54,0.88-1.06,0.68c-0.57-0.17-1-0.26-1.31-0.26c-0.73,0-1.29,0.22-1.69,0.66c-0.4,0.44-0.6,1.04-0.6,1.81v5.61
			c0,0.36-0.1,0.64-0.29,0.85c-0.2,0.2-0.48,0.31-0.84,0.31h-2.09c-0.36,0-0.64-0.1-0.84-0.31c-0.2-0.2-0.29-0.49-0.29-0.85v-10.39
			c0-0.36,0.1-0.64,0.29-0.85c0.2-0.2,0.48-0.31,0.84-0.31h1.33c0.36,0,0.64,0.1,0.84,0.31c0.2,0.2,0.3,0.49,0.3,0.85v0.6
			c0.94-1.31,2.09-1.97,3.44-1.97C661.36,610.03,661.97,610.12,662.55,610.31z"/>
		<path class="st0" d="M675.6,623.25c-1.32,0-2.55-0.21-3.7-0.63c-1.15-0.42-2.1-0.99-2.87-1.72c-0.63-0.57-0.7-1.13-0.2-1.68
			l0.88-1.06c0.55-0.63,1.1-0.7,1.66-0.21c0.52,0.44,1.16,0.82,1.9,1.13c0.75,0.31,1.43,0.47,2.06,0.47c0.72,0,1.29-0.12,1.71-0.36
			c0.42-0.24,0.63-0.57,0.63-0.98c0-0.16-0.02-0.31-0.07-0.44c-0.05-0.13-0.13-0.24-0.25-0.34s-0.24-0.18-0.36-0.26
			c-0.12-0.07-0.29-0.15-0.5-0.22c-0.22-0.07-0.41-0.13-0.58-0.18c-0.17-0.05-0.4-0.11-0.7-0.2c-0.3-0.08-0.55-0.15-0.75-0.21
			c-0.53-0.16-1.02-0.32-1.46-0.5c-0.44-0.18-0.91-0.41-1.4-0.71c-0.49-0.3-0.9-0.62-1.23-0.97c-0.33-0.35-0.61-0.78-0.82-1.29
			c-0.22-0.51-0.33-1.07-0.33-1.68c0-1.46,0.59-2.65,1.78-3.56c1.18-0.92,2.71-1.38,4.59-1.38c1.08,0,2.1,0.16,3.05,0.49
			c0.95,0.33,1.78,0.77,2.48,1.33c0.67,0.56,0.77,1.11,0.28,1.66l-0.86,1.06c-0.5,0.6-1.05,0.66-1.66,0.2
			c-1.06-0.82-2.13-1.23-3.22-1.23c-0.58,0-1.05,0.11-1.39,0.33c-0.35,0.22-0.52,0.52-0.52,0.9c0,0.22,0.06,0.42,0.19,0.6
			c0.13,0.18,0.32,0.34,0.58,0.48c0.26,0.14,0.51,0.26,0.74,0.35c0.24,0.09,0.54,0.19,0.91,0.31c1.49,0.46,2.54,0.84,3.13,1.13
			c1.47,0.71,2.38,1.69,2.73,2.94c0.11,0.43,0.17,0.88,0.17,1.36c0,1.06-0.3,1.99-0.91,2.76c-0.61,0.78-1.4,1.36-2.39,1.73
			C677.92,623.06,676.82,623.25,675.6,623.25z"/>
		<path class="st0" d="M691.89,610.03c1.55,0,2.81,0.5,3.78,1.51c0.97,1,1.46,2.33,1.46,3.99v6.27c0,0.37-0.1,0.65-0.3,0.85
			c-0.2,0.2-0.49,0.3-0.85,0.3h-2.06c-0.36,0-0.64-0.1-0.84-0.31c-0.2-0.2-0.3-0.49-0.3-0.85v-5.95c0-0.63-0.18-1.14-0.54-1.53
			c-0.36-0.39-0.85-0.58-1.47-0.58c-0.61,0-1.1,0.19-1.47,0.58c-0.37,0.39-0.55,0.9-0.55,1.53v5.95c0,0.36-0.1,0.64-0.31,0.85
			c-0.2,0.2-0.49,0.31-0.85,0.31h-2.04c-0.36,0-0.64-0.1-0.84-0.31c-0.2-0.2-0.29-0.49-0.29-0.85v-15.25c0-0.35,0.09-0.62,0.28-0.8
			c0.19-0.18,0.47-0.3,0.85-0.37l2.01-0.37c0.37-0.05,0.66,0.04,0.87,0.25c0.21,0.22,0.31,0.52,0.31,0.9v4.95
			C689.65,610.39,690.69,610.03,691.89,610.03z"/>
		<path class="st0" d="M706.2,623.27c-2.03,0-3.71-0.63-5.04-1.89c-1.33-1.26-1.99-2.84-1.99-4.74c0-1.9,0.66-3.48,1.99-4.74
			c1.33-1.26,3.01-1.89,5.04-1.89c1.34,0,2.55,0.29,3.62,0.86c1.07,0.57,1.9,1.36,2.5,2.37c0.6,1.01,0.9,2.14,0.9,3.39
			c0,1.25-0.3,2.38-0.9,3.39c-0.6,1.01-1.43,1.8-2.5,2.37C708.75,622.99,707.55,623.27,706.2,623.27z M704.24,618.73
			c0.52,0.55,1.17,0.82,1.96,0.82c0.79,0,1.44-0.28,1.95-0.82c0.51-0.55,0.77-1.24,0.77-2.08c0-0.84-0.26-1.53-0.77-2.08
			c-0.51-0.55-1.16-0.82-1.95-0.82c-0.79,0-1.44,0.27-1.96,0.82c-0.52,0.55-0.78,1.24-0.78,2.08
			C703.46,617.49,703.72,618.18,704.24,618.73z"/>
		<path class="st0" d="M722.98,610.03c1.19,0,2.26,0.29,3.22,0.87c0.96,0.58,1.71,1.38,2.25,2.39s0.81,2.13,0.81,3.36
			c0,1.22-0.27,2.34-0.81,3.35c-0.54,1.01-1.29,1.81-2.25,2.4c-0.96,0.59-2.04,0.88-3.24,0.88c-1.17,0-2.24-0.3-3.19-0.91v4.2
			c0,0.36-0.1,0.64-0.29,0.85c-0.2,0.2-0.48,0.31-0.84,0.31h-2.09c-0.36,0-0.64-0.1-0.84-0.31c-0.2-0.2-0.29-0.49-0.29-0.85v-15.17
			c0-0.36,0.1-0.64,0.29-0.85c0.2-0.2,0.48-0.31,0.84-0.31h1.23c0.36,0,0.64,0.1,0.84,0.31c0.2,0.2,0.3,0.49,0.3,0.85v0.17
			C720.12,610.54,721.47,610.03,722.98,610.03z M722.25,619.55c0.79,0,1.45-0.28,1.95-0.83c0.51-0.55,0.76-1.24,0.76-2.07
			c0-0.83-0.25-1.52-0.76-2.07c-0.51-0.55-1.16-0.83-1.95-0.83c-0.77,0-1.41,0.27-1.92,0.81c-0.51,0.54-0.77,1.23-0.77,2.09
			c0,0.86,0.26,1.56,0.77,2.1S721.48,619.55,722.25,619.55z"/>
		<path class="st0" d="M740.1,625.46c0,0.38-0.1,0.66-0.31,0.86c-0.2,0.2-0.5,0.29-0.87,0.29h-0.84c-0.77,0-1.16-0.38-1.16-1.15
			v-19.18c0-0.77,0.39-1.15,1.16-1.15h0.84c0.38,0,0.67,0.1,0.87,0.29c0.2,0.2,0.31,0.48,0.31,0.86V625.46z"/>
		<path class="st0" d="M761.59,606.59c0.41,0,0.71,0.09,0.9,0.27c0.19,0.18,0.19,0.44-0.02,0.79l-5.44,9.29v4.83
			c0,0.38-0.1,0.67-0.3,0.87c-0.2,0.2-0.49,0.31-0.88,0.31h-2.06c-0.38,0-0.66-0.1-0.86-0.31c-0.2-0.2-0.29-0.5-0.29-0.87v-4.78
			l-5.62-9.34c-0.18-0.35-0.18-0.62-0.01-0.79c0.17-0.18,0.46-0.26,0.87-0.26h2.14c0.75,0,1.33,0.39,1.76,1.18l3.1,5.38l2.97-5.38
			c0.39-0.79,0.97-1.18,1.73-1.18H761.59z"/>
		<path class="st0" d="M768.76,623.27c-2.03,0-3.71-0.63-5.04-1.89c-1.33-1.26-1.99-2.84-1.99-4.74c0-1.9,0.66-3.48,1.99-4.74
			c1.33-1.26,3.01-1.89,5.04-1.89c1.34,0,2.55,0.29,3.62,0.86c1.07,0.57,1.9,1.36,2.5,2.37c0.6,1.01,0.9,2.14,0.9,3.39
			c0,1.25-0.3,2.38-0.9,3.39c-0.6,1.01-1.43,1.8-2.5,2.37C771.31,622.99,770.1,623.27,768.76,623.27z M766.8,618.73
			c0.52,0.55,1.17,0.82,1.96,0.82c0.79,0,1.44-0.28,1.95-0.82c0.51-0.55,0.77-1.24,0.77-2.08c0-0.84-0.26-1.53-0.77-2.08
			c-0.51-0.55-1.16-0.82-1.95-0.82c-0.79,0-1.44,0.27-1.96,0.82c-0.52,0.55-0.78,1.24-0.78,2.08
			C766.02,617.49,766.28,618.18,766.8,618.73z"/>
		<path class="st0" d="M789.18,610.24c0.36,0,0.64,0.1,0.84,0.31c0.2,0.2,0.29,0.49,0.29,0.85v10.39c0,0.36-0.1,0.64-0.29,0.85
			c-0.2,0.2-0.48,0.31-0.84,0.31h-1.23c-0.36,0-0.64-0.1-0.85-0.31c-0.21-0.2-0.31-0.49-0.31-0.85v-0.5
			c-0.86,1.33-2.11,1.99-3.76,1.99c-1.56,0-2.81-0.47-3.77-1.41c-0.96-0.94-1.43-2.18-1.43-3.72v-6.75c0-0.36,0.1-0.64,0.31-0.85
			c0.2-0.2,0.49-0.31,0.85-0.31h2.06c0.36,0,0.64,0.1,0.85,0.31c0.21,0.2,0.31,0.49,0.31,0.85v6.12c0,0.61,0.17,1.11,0.5,1.49
			c0.34,0.38,0.79,0.57,1.35,0.57c0.58,0,1.04-0.19,1.38-0.58c0.34-0.38,0.51-0.89,0.51-1.51v-6.09c0-0.36,0.1-0.64,0.29-0.85
			c0.2-0.2,0.48-0.31,0.84-0.31H789.18z"/>
		<path class="st0" d="M802.09,610.31c0.27,0.09,0.46,0.21,0.58,0.36c0.12,0.15,0.13,0.39,0.04,0.72l-0.48,1.89
			c-0.19,0.66-0.54,0.88-1.06,0.68c-0.57-0.17-1-0.26-1.31-0.26c-0.73,0-1.29,0.22-1.69,0.66c-0.4,0.44-0.6,1.04-0.6,1.81v5.61
			c0,0.36-0.1,0.64-0.29,0.85c-0.2,0.2-0.48,0.31-0.84,0.31h-2.09c-0.36,0-0.64-0.1-0.84-0.31c-0.2-0.2-0.29-0.49-0.29-0.85v-10.39
			c0-0.36,0.1-0.64,0.29-0.85c0.2-0.2,0.48-0.31,0.84-0.31h1.33c0.36,0,0.64,0.1,0.84,0.31c0.2,0.2,0.3,0.49,0.3,0.85v0.6
			c0.94-1.31,2.09-1.97,3.44-1.97C800.9,610.03,801.51,610.12,802.09,610.31z"/>
		<path class="st0" d="M817.18,623.25c-1.25,0-2.42-0.22-3.52-0.65c-1.1-0.43-2.05-1.02-2.84-1.77c-0.79-0.75-1.42-1.64-1.88-2.7
			c-0.46-1.05-0.69-2.18-0.69-3.37c0-1.59,0.39-3.03,1.18-4.33c0.79-1.3,1.87-2.31,3.24-3.05c1.37-0.73,2.89-1.1,4.56-1.1
			c1.21,0,2.35,0.21,3.4,0.64c1.06,0.43,1.97,1.03,2.75,1.81c0.28,0.26,0.42,0.54,0.42,0.85s-0.14,0.57-0.42,0.81l-1.28,1.08
			c-0.53,0.46-1.08,0.45-1.66-0.02c-0.96-0.79-2.03-1.18-3.22-1.18c-1.27,0-2.33,0.43-3.19,1.28c-0.86,0.85-1.29,1.93-1.29,3.22
			c0,1.3,0.43,2.38,1.29,3.23c0.86,0.85,1.92,1.28,3.19,1.28c1.21,0,2.29-0.39,3.22-1.18c0.57-0.48,1.13-0.48,1.66-0.02l1.28,1.08
			c0.28,0.24,0.42,0.51,0.42,0.81s-0.14,0.59-0.42,0.85c-0.78,0.78-1.7,1.38-2.76,1.81C819.56,623.04,818.41,623.25,817.18,623.25z"
			/>
		<path class="st0" d="M833.28,610.03c1.55,0,2.81,0.5,3.78,1.51c0.97,1,1.46,2.33,1.46,3.99v6.27c0,0.37-0.1,0.65-0.3,0.85
			c-0.2,0.2-0.49,0.3-0.85,0.3h-2.06c-0.36,0-0.64-0.1-0.84-0.31c-0.2-0.2-0.3-0.49-0.3-0.85v-5.95c0-0.63-0.18-1.14-0.54-1.53
			c-0.36-0.39-0.85-0.58-1.47-0.58c-0.61,0-1.1,0.19-1.47,0.58c-0.37,0.39-0.55,0.9-0.55,1.53v5.95c0,0.36-0.1,0.64-0.31,0.85
			c-0.2,0.2-0.49,0.31-0.85,0.31h-2.04c-0.36,0-0.64-0.1-0.84-0.31c-0.2-0.2-0.29-0.49-0.29-0.85v-15.25c0-0.35,0.09-0.62,0.28-0.8
			c0.19-0.18,0.47-0.3,0.85-0.37l2.01-0.37c0.37-0.05,0.66,0.04,0.87,0.25c0.21,0.22,0.31,0.52,0.31,0.9v4.95
			C831.03,610.39,832.08,610.03,833.28,610.03z"/>
		<path class="st0" d="M847.59,623.27c-2.03,0-3.71-0.63-5.04-1.89c-1.33-1.26-1.99-2.84-1.99-4.74c0-1.9,0.66-3.48,1.99-4.74
			c1.33-1.26,3.01-1.89,5.04-1.89c1.34,0,2.55,0.29,3.62,0.86c1.07,0.57,1.9,1.36,2.5,2.37c0.6,1.01,0.9,2.14,0.9,3.39
			c0,1.25-0.3,2.38-0.9,3.39c-0.6,1.01-1.43,1.8-2.5,2.37C850.14,622.99,848.93,623.27,847.59,623.27z M845.63,618.73
			c0.52,0.55,1.17,0.82,1.96,0.82c0.79,0,1.44-0.28,1.95-0.82c0.51-0.55,0.77-1.24,0.77-2.08c0-0.84-0.26-1.53-0.77-2.08
			c-0.51-0.55-1.16-0.82-1.95-0.82c-0.79,0-1.44,0.27-1.96,0.82c-0.52,0.55-0.78,1.24-0.78,2.08
			C844.85,617.49,845.11,618.18,845.63,618.73z"/>
		<path class="st0" d="M858.98,608.3c-0.72,0-1.34-0.26-1.85-0.77c-0.51-0.51-0.77-1.13-0.77-1.85c0-0.73,0.26-1.35,0.77-1.86
			c0.51-0.51,1.13-0.76,1.85-0.76c0.73,0,1.35,0.25,1.86,0.76c0.51,0.51,0.76,1.13,0.76,1.86c0,0.72-0.25,1.34-0.76,1.85
			C860.33,608.04,859.71,608.3,858.98,608.3z M857.95,622.94c-0.37,0-0.65-0.1-0.85-0.3c-0.2-0.2-0.3-0.49-0.3-0.85v-10.39
			c0-0.37,0.1-0.65,0.3-0.85c0.2-0.2,0.48-0.3,0.85-0.3h2.06c0.36,0,0.64,0.1,0.85,0.31c0.2,0.2,0.31,0.49,0.31,0.85v10.39
			c0,0.36-0.1,0.64-0.31,0.85c-0.2,0.2-0.49,0.31-0.85,0.31H857.95z"/>
		<path class="st0" d="M870.21,623.27c-1.98,0-3.62-0.63-4.92-1.88c-1.3-1.25-1.95-2.83-1.95-4.74c0-1.91,0.65-3.49,1.95-4.74
			c1.3-1.25,2.94-1.88,4.92-1.88c1.99,0,3.65,0.66,4.99,1.97c0.42,0.44,0.41,0.88-0.02,1.31l-1.34,1.33
			c-0.21,0.19-0.4,0.29-0.57,0.3c-0.18,0.01-0.42-0.1-0.73-0.35c-0.61-0.56-1.32-0.84-2.14-0.84c-0.8,0-1.46,0.27-1.97,0.82
			c-0.51,0.55-0.77,1.24-0.77,2.08c0,0.84,0.25,1.53,0.76,2.09c0.51,0.56,1.17,0.84,1.98,0.84c0.8,0,1.52-0.29,2.14-0.86
			c0.31-0.25,0.55-0.36,0.73-0.35c0.18,0.01,0.37,0.11,0.57,0.3l1.34,1.33c0.43,0.43,0.44,0.87,0.02,1.31
			C873.86,622.62,872.2,623.27,870.21,623.27z"/>
		<path class="st0" d="M880.78,617.58c0.1,0.81,0.45,1.45,1.07,1.9c0.61,0.46,1.35,0.69,2.21,0.69c0.92,0,1.81-0.3,2.69-0.91
			c0.17-0.13,0.32-0.23,0.44-0.28c0.12-0.06,0.26-0.07,0.41-0.04c0.15,0.03,0.3,0.13,0.46,0.3l0.86,0.88
			c0.43,0.42,0.45,0.84,0.05,1.28c-0.55,0.58-1.33,1.04-2.34,1.37s-2.03,0.5-3.07,0.5c-2.02,0-3.69-0.62-5.01-1.86
			c-1.31-1.24-1.97-2.84-1.97-4.79c0-1.25,0.29-2.38,0.86-3.38c0.57-1,1.38-1.79,2.41-2.36c1.03-0.57,2.2-0.85,3.5-0.85
			c0.98,0,1.88,0.16,2.7,0.48c0.82,0.32,1.5,0.76,2.06,1.31c0.58,0.58,1.03,1.27,1.36,2.06c0.32,0.79,0.49,1.62,0.49,2.48
			c0,0.46-0.08,0.78-0.24,0.95c-0.16,0.18-0.46,0.26-0.92,0.26H880.78z M883.25,613.03c-0.67,0-1.22,0.19-1.65,0.58
			c-0.43,0.39-0.69,0.91-0.78,1.59h4.9c-0.1-0.61-0.33-1.09-0.7-1.46C884.55,613.26,883.96,613.03,883.25,613.03z"/>
	</g>
	<g>
		<path class="st0" d="M370.77,428.55c4.94,0,8.95,4.02,8.95,8.95v120.82c0,14.11-3.62,25.15-11.39,34.74
			c-7.08,8.74-16.98,15.56-28.25,22.95c-7.52,4.93-16.21,10.19-24.62,15.28c-12.66,7.67-20.94,12.73-26.24,16.63
			c-5.3-3.89-13.57-8.95-26.22-16.61c-8.41-5.1-17.11-10.36-24.64-15.3c-11.27-7.38-21.17-14.2-28.25-22.95
			c-7.77-9.59-11.39-20.63-11.39-34.74V437.5c0-4.94,4.02-8.95,8.95-8.95H370.77 M370.77,419.87H207.69
			c-9.74,0-17.63,7.89-17.63,17.63v120.82c0,35.39,21,50.17,43.56,64.95c22.55,14.78,55.62,32.63,55.62,36.86
			c0-4.23,33.06-22.08,55.62-36.86c22.55-14.78,43.56-29.56,43.56-64.95V437.5C388.4,427.76,380.51,419.87,370.77,419.87
			L370.77,419.87z"/>
		<g>
			<path class="st0" d="M362.77,489.69l-31.22,14.61l-0.1-1.7c-0.25-4.22-3.68-7.54-7.87-7.7c-2.32-0.43-18.89-3.37-34.35-3.37
				c-15.45,0-32.02,2.94-34.35,3.37c-4.19,0.15-7.62,3.47-7.87,7.7l-0.1,1.7l-16.22-7.59v13.44c0.74,0.53,1.21,1.38,1.21,2.35
				c0,0.81-0.33,1.55-0.87,2.07l3.07,5.15h-10.24l3.07-5.15c-0.54-0.53-0.87-1.26-0.87-2.07c0-0.97,0.47-1.83,1.21-2.35v-15.04
				l2.85-0.7h-4.33l-10.11-4.73c-1.46-0.69-1.46-2.77,0-3.44l70.33-32.9c2.03-0.96,4.39-0.96,6.42,0l70.33,32.9
				C364.23,486.93,364.23,489.01,362.77,489.69z"/>
			<path class="st0" d="M332.86,577.68l-4.44-74.89c-0.17-2.72-2.42-4.85-5.15-4.85c0,0-17.83-3.36-34.04-3.36
				c-16.21,0-34.03,3.36-34.03,3.36c-2.74,0-4.99,2.13-5.15,4.85l-4.45,74.89c-0.18,2.97,2.18,5.48,5.15,5.48h76.95
				C330.68,583.15,333.04,580.65,332.86,577.68z M309.43,518.46c-0.13,1.24-0.89,2.26-1.94,2.77c-2.72,7.59-9.99,12.84-18.26,12.84
				c-8.27,0-15.53-5.25-18.26-12.84c-1.04-0.51-1.81-1.53-1.94-2.77c-0.19-1.9,1.2-3.6,3.1-3.79s3.6,1.2,3.79,3.1
				c0.08,0.8-0.12,1.56-0.51,2.2c2.15,5.63,7.61,9.5,13.81,9.5c6.21,0,11.67-3.87,13.82-9.5c-0.39-0.63-0.59-1.4-0.51-2.2
				c0.19-1.9,1.89-3.29,3.79-3.1C308.23,514.86,309.62,516.55,309.43,518.46z"/>
		</g>
	</g>
	<g>
		<g>
			<path class="st0" d="M479.76,504.07c-2.67,2.3-5.66,4.06-8.96,5.28s-6.74,1.84-10.28,1.84c-2.72,0-5.34-0.35-7.86-1.06
				c-2.52-0.71-4.88-1.71-7.08-3c-2.2-1.29-4.21-2.85-6.02-4.66c-1.81-1.81-3.37-3.82-4.66-6.02c-1.29-2.2-2.3-4.56-3-7.08
				c-0.71-2.52-1.06-5.14-1.06-7.86c0-2.72,0.35-5.35,1.06-7.88c0.71-2.53,1.71-4.9,3-7.1c1.29-2.2,2.85-4.21,4.66-6.02
				s3.82-3.37,6.02-4.66c2.2-1.29,4.56-2.29,7.08-3c2.52-0.71,5.14-1.06,7.86-1.06c3.55,0,6.97,0.61,10.28,1.82s6.3,2.98,8.96,5.3
				l-6.08,10c-1.68-1.81-3.67-3.21-5.96-4.18s-4.7-1.46-7.2-1.46c-2.53,0-4.91,0.48-7.12,1.44c-2.22,0.96-4.15,2.26-5.8,3.9
				c-1.65,1.64-2.96,3.58-3.92,5.8c-0.96,2.23-1.44,4.59-1.44,7.1c0,2.51,0.48,4.86,1.44,7.06c0.96,2.2,2.27,4.13,3.92,5.78
				c1.65,1.65,3.59,2.96,5.8,3.92c2.21,0.96,4.59,1.44,7.12,1.44c2.51,0,4.91-0.49,7.2-1.46c2.29-0.97,4.28-2.37,5.96-4.18
				L479.76,504.07z"/>
			<path class="st0" d="M531.66,509.95h-11.48v-11.48h-22.97v11.48h-11.44v-34.41c0-3.17,0.6-6.16,1.8-8.94
				c1.2-2.79,2.83-5.22,4.9-7.3c2.07-2.08,4.5-3.72,7.28-4.92c2.79-1.2,5.77-1.8,8.94-1.8c3.17,0,6.16,0.6,8.94,1.8
				c2.79,1.2,5.22,2.84,7.3,4.92c2.08,2.08,3.72,4.52,4.92,7.3c1.2,2.79,1.8,5.77,1.8,8.94V509.95z M520.18,487.02v-11.48
				c0-1.57-0.3-3.06-0.9-4.46c-0.6-1.4-1.42-2.62-2.46-3.66c-1.04-1.04-2.26-1.86-3.66-2.46c-1.4-0.6-2.89-0.9-4.46-0.9
				c-1.57,0-3.06,0.3-4.46,0.9c-1.4,0.6-2.62,1.42-3.66,2.46c-1.04,1.04-1.86,2.26-2.46,3.66c-0.6,1.4-0.9,2.89-0.9,4.46v11.48
				H520.18z"/>
			<path class="st0" d="M598.56,509.95h-11.44v-40.97c0-0.8-0.15-1.55-0.46-2.24c-0.31-0.69-0.72-1.3-1.24-1.82
				c-0.52-0.52-1.13-0.93-1.82-1.22c-0.69-0.29-1.44-0.44-2.24-0.44c-0.8,0-1.55,0.15-2.24,0.44c-0.69,0.29-1.3,0.7-1.82,1.22
				c-0.52,0.52-0.93,1.13-1.22,1.82c-0.29,0.69-0.44,1.44-0.44,2.24v40.97h-11.48v-40.97c0-0.8-0.15-1.55-0.44-2.24
				c-0.29-0.69-0.7-1.3-1.22-1.82c-0.52-0.52-1.13-0.93-1.82-1.22c-0.69-0.29-1.44-0.44-2.24-0.44c-0.8,0-1.55,0.15-2.24,0.44
				c-0.69,0.29-1.3,0.7-1.82,1.22c-0.52,0.52-0.93,1.13-1.22,1.82c-0.29,0.69-0.44,1.44-0.44,2.24v40.97h-11.48v-40.97
				c0-2.37,0.45-4.61,1.34-6.7c0.89-2.09,2.12-3.92,3.68-5.48c1.56-1.56,3.39-2.79,5.48-3.68c2.09-0.89,4.33-1.34,6.7-1.34
				c2.13,0,4.19,0.38,6.16,1.14c1.97,0.76,3.75,1.86,5.32,3.3c1.57-1.44,3.34-2.54,5.3-3.3c1.96-0.76,4.01-1.14,6.14-1.14
				c2.37,0,4.61,0.45,6.7,1.34c2.09,0.89,3.92,2.12,5.48,3.68c1.56,1.56,2.79,3.39,3.68,5.48c0.89,2.09,1.34,4.33,1.34,6.7V509.95z"
				/>
			<path class="st0" d="M620.29,509.95h-11.48v-57.38h22.97c2.11,0,4.13,0.27,6.08,0.82c1.95,0.55,3.77,1.32,5.46,2.32
				c1.69,1,3.24,2.2,4.64,3.6c1.4,1.4,2.6,2.95,3.6,4.66c1,1.71,1.77,3.54,2.32,5.48c0.55,1.95,0.82,3.98,0.82,6.08
				c0,3.15-0.6,6.12-1.8,8.9c-1.2,2.79-2.84,5.22-4.92,7.3c-2.08,2.08-4.52,3.72-7.3,4.92s-5.76,1.8-8.9,1.8h-11.48V509.95z
				 M620.29,464.05v22.97h11.48c1.57,0,3.05-0.3,4.44-0.9c1.39-0.6,2.6-1.42,3.64-2.46c1.04-1.04,1.86-2.26,2.46-3.66
				c0.6-1.4,0.9-2.89,0.9-4.46c0-1.57-0.3-3.06-0.9-4.46c-0.6-1.4-1.42-2.62-2.46-3.66c-1.04-1.04-2.26-1.86-3.64-2.46
				c-1.39-0.6-2.87-0.9-4.44-0.9H620.29z"/>
			<path class="st0" d="M706.68,487.02c0,3.18-0.6,6.16-1.8,8.94c-1.2,2.79-2.84,5.22-4.92,7.28c-2.08,2.07-4.51,3.7-7.3,4.9
				c-2.79,1.2-5.77,1.8-8.94,1.8c-3.17,0-6.15-0.6-8.94-1.8c-2.79-1.2-5.22-2.83-7.28-4.9c-2.07-2.07-3.7-4.49-4.9-7.28
				c-1.2-2.79-1.8-5.77-1.8-8.94v-34.45h11.44v34.45c0,1.57,0.3,3.05,0.9,4.44c0.6,1.39,1.42,2.6,2.46,3.64
				c1.04,1.04,2.26,1.86,3.66,2.46c1.4,0.6,2.89,0.9,4.46,0.9c1.57,0,3.06-0.3,4.46-0.9c1.4-0.6,2.62-1.42,3.66-2.46
				c1.04-1.04,1.86-2.25,2.46-3.64c0.6-1.39,0.9-2.87,0.9-4.44v-34.45h11.48V487.02z"/>
			<path class="st0" d="M713.28,469.78c0-2.37,0.45-4.6,1.36-6.68c0.91-2.08,2.14-3.9,3.7-5.46c1.56-1.56,3.38-2.79,5.46-3.7
				s4.31-1.36,6.68-1.36h26.33v11.48h-26.33c-0.8,0-1.55,0.15-2.24,0.44c-0.69,0.29-1.3,0.7-1.82,1.22
				c-0.52,0.52-0.93,1.13-1.22,1.82c-0.29,0.69-0.44,1.44-0.44,2.24s0.15,1.55,0.44,2.26c0.29,0.71,0.7,1.32,1.22,1.84
				c0.52,0.52,1.13,0.93,1.82,1.22c0.69,0.29,1.44,0.44,2.24,0.44h11.48c2.37,0,4.61,0.45,6.7,1.34c2.09,0.89,3.92,2.12,5.48,3.68
				s2.79,3.39,3.68,5.48c0.89,2.09,1.34,4.33,1.34,6.7c0,2.38-0.45,4.6-1.34,6.68c-0.89,2.08-2.12,3.9-3.68,5.46
				c-1.56,1.56-3.39,2.79-5.48,3.7c-2.09,0.91-4.33,1.36-6.7,1.36h-25.49v-11.48h25.49c0.8,0,1.55-0.15,2.24-0.44
				c0.69-0.29,1.3-0.7,1.82-1.22c0.52-0.52,0.93-1.13,1.22-1.82c0.29-0.69,0.44-1.44,0.44-2.24s-0.15-1.55-0.44-2.24
				c-0.29-0.69-0.7-1.3-1.22-1.82c-0.52-0.52-1.13-0.93-1.82-1.22c-0.69-0.29-1.44-0.44-2.24-0.44h-11.48
				c-2.38,0-4.6-0.45-6.68-1.36c-2.08-0.91-3.9-2.14-5.46-3.7c-1.56-1.56-2.79-3.39-3.7-5.48
				C713.73,474.39,713.28,472.15,713.28,469.78z"/>
			<path class="st0" d="M778.18,509.95H766.7v-57.38h11.48V509.95z"/>
			<path class="st0" d="M834.08,509.95H822.6v-11.48h-22.97v11.48h-11.44v-34.41c0-3.17,0.6-6.16,1.8-8.94
				c1.2-2.79,2.83-5.22,4.9-7.3c2.07-2.08,4.5-3.72,7.28-4.92c2.79-1.2,5.77-1.8,8.94-1.8c3.17,0,6.16,0.6,8.94,1.8
				c2.79,1.2,5.22,2.84,7.3,4.92c2.08,2.08,3.72,4.52,4.92,7.3c1.2,2.79,1.8,5.77,1.8,8.94V509.95z M822.6,487.02v-11.48
				c0-1.57-0.3-3.06-0.9-4.46c-0.6-1.4-1.42-2.62-2.46-3.66c-1.04-1.04-2.26-1.86-3.66-2.46c-1.4-0.6-2.89-0.9-4.46-0.9
				c-1.57,0-3.06,0.3-4.46,0.9c-1.4,0.6-2.62,1.42-3.66,2.46c-1.04,1.04-1.86,2.26-2.46,3.66c-0.6,1.4-0.9,2.89-0.9,4.46v11.48
				H822.6z"/>
			<path class="st0" d="M889.94,509.95h-12.28l-22.13-37.77v37.77h-11.48v-57.38h12.28l22.13,37.81v-37.81h11.48V509.95z"/>
		</g>
		<g>
			<path class="st0" d="M430.82,543.78c0-2.37,0.45-4.6,1.36-6.68c0.91-2.08,2.14-3.9,3.7-5.46s3.38-2.79,5.46-3.7
				c2.08-0.91,4.31-1.36,6.68-1.36h26.33v11.48h-26.33c-0.8,0-1.55,0.15-2.24,0.44c-0.69,0.29-1.3,0.7-1.82,1.22
				c-0.52,0.52-0.93,1.13-1.22,1.82c-0.29,0.69-0.44,1.44-0.44,2.24c0,0.8,0.15,1.55,0.44,2.26c0.29,0.71,0.7,1.32,1.22,1.84
				c0.52,0.52,1.13,0.93,1.82,1.22c0.69,0.29,1.44,0.44,2.24,0.44h11.48c2.37,0,4.61,0.45,6.7,1.34c2.09,0.89,3.92,2.12,5.48,3.68
				s2.79,3.39,3.68,5.48c0.89,2.09,1.34,4.33,1.34,6.7c0,2.38-0.45,4.6-1.34,6.68c-0.89,2.08-2.12,3.9-3.68,5.46
				c-1.56,1.56-3.39,2.79-5.48,3.7c-2.09,0.91-4.33,1.36-6.7,1.36h-25.49v-11.48h25.49c0.8,0,1.55-0.15,2.24-0.44
				c0.69-0.29,1.3-0.7,1.82-1.22c0.52-0.52,0.93-1.13,1.22-1.82c0.29-0.69,0.44-1.44,0.44-2.24c0-0.8-0.15-1.55-0.44-2.24
				c-0.29-0.69-0.7-1.3-1.22-1.82c-0.52-0.52-1.13-0.93-1.82-1.22c-0.69-0.29-1.44-0.44-2.24-0.44h-11.48
				c-2.37,0-4.6-0.45-6.68-1.36c-2.08-0.91-3.9-2.14-5.46-3.7c-1.56-1.56-2.79-3.39-3.7-5.48
				C431.28,548.39,430.82,546.16,430.82,543.78z"/>
			<path class="st0" d="M495.73,583.95h-11.48v-57.38h11.48v22.97h22.93v-22.97h11.48v57.38h-11.48v-22.93h-22.93V583.95z"/>
			<path class="st0" d="M597,555.5c0,2.72-0.35,5.34-1.06,7.86c-0.71,2.52-1.7,4.88-2.98,7.08c-1.28,2.2-2.83,4.21-4.64,6.02
				c-1.81,1.81-3.81,3.37-6,4.66c-2.19,1.29-4.55,2.29-7.08,3c-2.53,0.71-5.16,1.06-7.88,1.06c-2.72,0-5.34-0.35-7.86-1.06
				c-2.52-0.71-4.88-1.71-7.08-3c-2.2-1.29-4.21-2.85-6.02-4.66c-1.81-1.81-3.37-3.82-4.66-6.02c-1.29-2.2-2.3-4.56-3-7.08
				c-0.71-2.52-1.06-5.14-1.06-7.86c0-2.72,0.35-5.35,1.06-7.88c0.71-2.53,1.71-4.89,3-7.08c1.29-2.19,2.85-4.19,4.66-6
				c1.81-1.81,3.82-3.36,6.02-4.64c2.2-1.28,4.56-2.27,7.08-2.98c2.52-0.71,5.14-1.06,7.86-1.06c2.72,0,5.35,0.35,7.88,1.06
				c2.53,0.71,4.89,1.7,7.08,2.98c2.19,1.28,4.19,2.83,6,4.64c1.81,1.81,3.36,3.81,4.64,6c1.28,2.19,2.27,4.55,2.98,7.08
				C596.65,550.16,597,552.78,597,555.5z M585.6,555.5c0-2.51-0.48-4.87-1.44-7.1c-0.96-2.23-2.26-4.16-3.9-5.8
				c-1.64-1.64-3.58-2.94-5.8-3.9s-4.6-1.44-7.1-1.44c-2.53,0-4.91,0.48-7.12,1.44c-2.22,0.96-4.15,2.26-5.8,3.9
				c-1.65,1.64-2.96,3.57-3.92,5.8c-0.96,2.23-1.44,4.59-1.44,7.1c0,2.51,0.48,4.86,1.44,7.06c0.96,2.2,2.27,4.13,3.92,5.78
				c1.65,1.65,3.59,2.96,5.8,3.92c2.21,0.96,4.59,1.44,7.12,1.44c2.51,0,4.87-0.48,7.1-1.44s4.16-2.27,5.8-3.92
				c1.64-1.65,2.94-3.58,3.9-5.78C585.12,560.37,585.6,558.01,585.6,555.5z"/>
			<path class="st0" d="M616.01,583.95h-11.48v-57.38h22.97c2.11,0,4.13,0.27,6.08,0.82s3.77,1.32,5.46,2.32
				c1.69,1,3.24,2.2,4.64,3.6c1.4,1.4,2.6,2.95,3.6,4.66c1,1.71,1.77,3.54,2.32,5.48c0.55,1.95,0.82,3.98,0.82,6.08
				c0,3.15-0.6,6.12-1.8,8.9c-1.2,2.79-2.84,5.22-4.92,7.3c-2.08,2.08-4.51,3.72-7.3,4.92c-2.79,1.2-5.76,1.8-8.9,1.8h-11.48V583.95
				z M616.01,538.06v22.97h11.48c1.57,0,3.05-0.3,4.44-0.9s2.6-1.42,3.64-2.46c1.04-1.04,1.86-2.26,2.46-3.66
				c0.6-1.4,0.9-2.89,0.9-4.46c0-1.57-0.3-3.06-0.9-4.46c-0.6-1.4-1.42-2.62-2.46-3.66c-1.04-1.04-2.25-1.86-3.64-2.46
				s-2.87-0.9-4.44-0.9H616.01z"/>
		</g>
	</g>
</g>
</svg>
